<svg id="visual" viewBox="0 0 900 600" width="900" height="600" xmlns="http://www.w3.org/2000/svg" xmlns:xlink="http://www.w3.org/1999/xlink" version="1.1"><rect x="0" y="0" width="900" height="600" fill="#00000000"></rect><path d="M0 465L25 462.2C50 459.3 100 453.7 150 445.8C200 438 250 428 300 419.2C350 410.3 400 402.7 450 407.3C500 412 550 429 600 433.8C650 438.7 700 431.3 750 428.3C800 425.3 850 426.7 875 427.3L900 428L900 601L875 601C850 601 800 601 750 601C700 601 650 601 600 601C550 601 500 601 450 601C400 601 350 601 300 601C250 601 200 601 150 601C100 601 50 601 25 601L0 601Z" fill="#DD612C"></path><path d="M0 470L25 470.3C50 470.7 100 471.3 150 470.3C200 469.3 250 466.7 300 472C350 477.3 400 490.7 450 495C500 499.3 550 494.7 600 495.2C650 495.7 700 501.3 750 503.3C800 505.3 850 503.7 875 502.8L900 502L900 601L875 601C850 601 800 601 750 601C700 601 650 601 600 601C550 601 500 601 450 601C400 601 350 601 300 601C250 601 200 601 150 601C100 601 50 601 25 601L0 601Z" fill="#DD4A2C"></path><path d="M0 521L25 519.3C50 517.7 100 514.3 150 512.7C200 511 250 511 300 511.8C350 512.7 400 514.3 450 516C500 517.7 550 519.3 600 526C650 532.7 700 544.3 750 542.7C800 541 850 526 875 518.5L900 511L900 601L875 601C850 601 800 601 750 601C700 601 650 601 600 601C550 601 500 601 450 601C400 601 350 601 300 601C250 601 200 601 150 601C100 601 50 601 25 601L0 601Z" fill="#DD322C"></path></svg>